<svg width="574" height="487" viewBox="0 0 574 487" fill="none" xmlns="http://www.w3.org/2000/svg">
<g clip-path="url(#clip0_8_142)">
<path d="M553.912 203.882C525.206 240.599 471.042 249.007 426.225 236.219C411.561 231.932 397.414 226.042 384.04 218.653C376.273 214.434 368.691 209.805 361.263 204.873C359.436 203.665 357.609 202.438 355.8 201.187C354.567 200.344 353.339 199.491 352.114 198.628C336.776 187.835 322.04 175.994 307.551 164.222C271.381 134.834 234.221 104.542 189.782 90.5205C180.626 87.6332 168.782 86.2824 163.121 94.0398C158.209 100.775 161.207 110.31 165.363 117.535C180.781 144.295 208.768 161.192 236.779 174.185C264.79 187.178 294.462 197.705 318.812 216.702C343.163 235.699 361.753 265.892 356.772 296.37C352.479 322.634 331.04 343.973 306.114 353.273C281.187 362.567 253.387 361.272 227.475 355.238C201.564 349.196 176.965 338.657 151.958 329.574C136.881 324.09 117.17 320.298 107.166 332.845C98.7169 343.447 103.573 360.169 113.862 368.993C124.151 377.816 138.077 380.771 151.364 383.423C192.619 391.664 233.874 399.902 275.129 408.139C287.784 410.661 300.737 413.3 311.763 420.016C322.79 426.727 331.685 438.449 331.369 451.356C331.053 464.076 321.743 475.316 310.332 480.948C298.928 486.574 285.759 487.441 273.054 486.834C225.443 484.554 88.9482 408.895 56.2103 399.223C35.1739 393.014 12.1739 383.894 3.30324 363.831C-7.74155 338.855 10.4332 308.638 35.242 297.231C60.0447 285.818 88.7994 288.346 115.832 292.187C142.865 296.029 170.789 300.917 197.104 293.619C223.418 286.32 247.527 262.527 244.931 235.339C242.67 211.683 221.367 193.857 198.949 186.001C181.401 179.848 162.73 178.175 144.296 175.405C139.179 174.643 134.081 173.788 129.033 172.735C116.103 170.025 103.492 165.976 91.4012 160.653C78.7139 155.078 66.6607 148.159 55.4485 140.014C46.5056 133.527 38.1483 126.268 30.4725 118.322C29.3016 117.107 28.1432 115.866 26.9972 114.598C25.9071 113.384 24.8291 112.144 23.7762 110.881C10.074 94.5045 -0.0480252 74.3366 2.98751 53.5553C6.01639 32.8298 22.1656 15.574 41.3932 7.28377C52.5061 2.49428 64.4924 0.35047 76.6273 0.040671C85.5004 -0.136706 94.371 0.502103 103.127 1.94903C143.645 8.43003 180.775 28.1209 215.842 49.4412C250.903 70.7616 285.071 94.1638 323.186 109.363C361.301 124.567 404.687 131.005 443.353 117.256C482.018 103.514 513.784 66.0154 511.894 25.0167C537.539 47.1053 559.332 74.8695 568.983 107.312C578.634 139.754 574.756 177.215 553.912 203.882Z" fill="#3F3D56"/>
<path d="M369.135 161.511C371.625 161.511 373.643 159.493 373.643 157.002C373.643 154.512 371.625 152.493 369.135 152.493C366.646 152.493 364.627 154.512 364.627 157.002C364.627 159.493 366.646 161.511 369.135 161.511Z" fill="#F2AB6D"/>
<path d="M528.333 104.492C532.183 104.492 535.303 101.371 535.303 97.5208C535.303 93.6704 532.183 90.5491 528.333 90.5491C524.484 90.5491 521.363 93.6704 521.363 97.5208C521.363 101.371 524.484 104.492 528.333 104.492Z" fill="#FF6584"/>
<path d="M71.1811 319.434C72.6035 319.434 73.7565 318.281 73.7565 316.858C73.7565 315.436 72.6035 314.282 71.1811 314.282C69.7588 314.282 68.6058 315.436 68.6058 316.858C68.6058 318.281 69.7588 319.434 71.1811 319.434Z" fill="#FF6584"/>
<path d="M145.101 168.776C145.103 171.01 144.832 173.237 144.296 175.406C139.179 174.644 134.081 173.789 129.033 172.735C116.103 170.026 103.492 165.977 91.4012 160.653C93.3455 154.374 97.4762 149.001 103.043 145.508C108.611 142.015 115.245 140.635 121.743 141.618C128.241 142.601 134.171 145.882 138.457 150.865C142.743 155.848 145.1 162.203 145.101 168.776Z" fill="#FF6584"/>
<path d="M483.733 145.386C485.188 145.386 486.367 144.206 486.367 142.751C486.367 141.296 485.188 140.117 483.733 140.117C482.278 140.117 481.099 141.296 481.099 142.751C481.099 144.206 482.278 145.386 483.733 145.386Z" fill="#F0F0F0"/>
<path d="M242.768 435.358C244.223 435.358 245.402 434.178 245.402 432.723C245.402 431.268 244.223 430.089 242.768 430.089C241.313 430.089 240.134 431.268 240.134 432.723C240.134 434.178 241.313 435.358 242.768 435.358Z" fill="#F0F0F0"/>
<path d="M280.554 471.914C282.009 471.914 283.188 470.734 283.188 469.279C283.188 467.824 282.009 466.645 280.554 466.645C279.1 466.645 277.92 467.824 277.92 469.279C277.92 470.734 279.1 471.914 280.554 471.914Z" fill="#F0F0F0"/>
<path d="M47.0227 367.822C48.4773 367.822 49.6566 366.642 49.6566 365.187C49.6566 363.732 48.4773 362.553 47.0227 362.553C45.568 362.553 44.3888 363.732 44.3888 365.187C44.3888 366.642 45.568 367.822 47.0227 367.822Z" fill="#F0F0F0"/>
<path d="M176.487 318.873C177.942 318.873 179.121 317.694 179.121 316.239C179.121 314.784 177.942 313.604 176.487 313.604C175.033 313.604 173.853 314.784 173.853 316.239C173.853 317.694 175.033 318.873 176.487 318.873Z" fill="#F0F0F0"/>
<path d="M163.479 57.4031C164.933 57.4031 166.113 56.2235 166.113 54.7685C166.113 53.3135 164.933 52.134 163.479 52.134C162.024 52.134 160.845 53.3135 160.845 54.7685C160.845 56.2235 162.024 57.4031 163.479 57.4031Z" fill="#F0F0F0"/>
<path d="M322.677 263.729C324.131 263.729 325.311 262.55 325.311 261.095C325.311 259.64 324.131 258.46 322.677 258.46C321.222 258.46 320.043 259.64 320.043 261.095C320.043 262.55 321.222 263.729 322.677 263.729Z" fill="#F0F0F0"/>
<path d="M342.499 309.579C343.954 309.579 345.133 308.4 345.133 306.945C345.133 305.49 343.954 304.31 342.499 304.31C341.044 304.31 339.865 305.49 339.865 306.945C339.865 308.4 341.044 309.579 342.499 309.579Z" fill="#F0F0F0"/>
<path d="M105.085 63.178C105.104 76.48 101.962 89.596 95.917 101.444C95.1179 103.006 94.2713 104.54 93.3772 106.048C84.5252 121 71.2812 132.861 55.4485 140.014C46.5056 133.527 38.1483 126.269 30.4725 118.322C29.3016 117.108 28.1432 115.867 26.9971 114.598C25.9071 113.384 24.8291 112.145 23.7762 110.881C10.0739 94.5049 -0.0480328 74.337 2.9875 53.5557C6.01638 32.8302 22.1656 15.5743 41.3932 7.28411C52.5061 2.49462 64.4924 0.350845 76.6273 0.0410461C86.1156 8.42238 93.5956 18.8329 98.5124 30.5005C99.1319 31.9689 99.7017 33.456 100.241 34.9616C103.456 44.0211 105.094 53.5648 105.085 63.178Z" fill="#F2AB6D"/>
<path d="M143.49 67.5152C143.49 80.4214 130.891 92.3921 108.009 101.234C103.431 103.006 98.5309 104.611 93.3772 106.048C74.0875 111.426 51.1308 114.406 26.9971 114.598C25.9071 113.384 24.8291 112.145 23.7762 110.881C24.0363 110.887 24.2964 110.887 24.5566 110.887C50.7654 110.887 75.6301 107.566 95.917 101.444C99.6646 100.311 103.258 99.0837 106.671 97.764C127.707 89.641 139.774 78.6122 139.774 67.5152C139.774 56.4182 127.707 45.3956 106.671 37.2664C104.589 36.461 102.446 35.6927 100.241 34.9615C99.7018 33.4559 99.1319 31.9689 98.5125 30.5004C101.808 31.529 104.973 32.6277 108.009 33.7967C130.891 42.6383 143.49 54.6152 143.49 67.5152Z" fill="#E4E4E4"/>
<path d="M28.4393 21.4664C29.8939 21.4664 31.0731 20.2869 31.0731 18.8319C31.0731 17.3769 29.8939 16.1974 28.4393 16.1974C26.9846 16.1974 25.8054 17.3769 25.8054 18.8319C25.8054 20.2869 26.9846 21.4664 28.4393 21.4664Z" fill="#F0F0F0"/>
<path d="M83.5701 38.1955C85.0247 38.1955 86.2039 37.016 86.2039 35.561C86.2039 34.106 85.0247 32.9265 83.5701 32.9265C82.1154 32.9265 80.9362 34.106 80.9362 35.561C80.9362 37.016 82.1154 38.1955 83.5701 38.1955Z" fill="#F0F0F0"/>
<path d="M55.0755 87.8231C69.2213 87.8231 80.6887 76.3529 80.6887 62.2037C80.6887 48.0545 69.2213 36.5843 55.0755 36.5843C40.9297 36.5843 29.4623 48.0545 29.4623 62.2037C29.4623 76.3529 40.9297 87.8231 55.0755 87.8231Z" fill="#F0F0F0"/>
<path opacity="0.3" d="M528.087 197.798C522.338 199.496 509.664 200.747 495.727 201.516C481.796 202.278 466.514 202.612 451.424 202.935C425.011 203.505 398.6 204.077 372.191 204.651C368.56 204.731 364.918 204.806 361.263 204.874C359.436 203.666 357.609 202.439 355.8 201.187C359.04 201.206 362.279 201.187 365.494 201.125C379.227 200.853 390.854 199.781 404.098 199.273C424.478 198.486 446.481 199.105 467.722 199.421C488.962 199.744 513.164 199.626 528.087 197.798Z" fill="#F0F0F0"/>
<path opacity="0.3" d="M122.702 393.114L38.5065 322.957L120.301 395.924C120.46 396.191 120.679 396.417 120.942 396.582C121.205 396.747 121.504 396.846 121.813 396.873C122.122 396.9 122.433 396.852 122.72 396.734C123.007 396.617 123.262 396.432 123.464 396.196C123.665 395.96 123.808 395.68 123.879 395.378C123.951 395.076 123.949 394.761 123.875 394.46C123.8 394.158 123.655 393.879 123.451 393.645C123.247 393.411 122.991 393.229 122.702 393.114H122.702Z" fill="#F0F0F0"/>
<path d="M58.7922 127.418C60.2468 127.418 61.4261 126.238 61.4261 124.783C61.4261 123.328 60.2468 122.149 58.7922 122.149C57.3375 122.149 56.1583 123.328 56.1583 124.783C56.1583 126.238 57.3375 127.418 58.7922 127.418Z" fill="#F0F0F0"/>
<path d="M280.001 430.047L290.895 430.046L296.078 388.014L279.999 388.015L280.001 430.047Z" fill="#FFB6B6"/>
<path d="M277.222 426.489L280.288 426.489L292.26 421.619L298.677 426.488H298.678C302.304 426.488 305.781 427.929 308.345 430.494C310.91 433.058 312.35 436.537 312.35 440.164V440.608L277.222 440.609L277.222 426.489Z" fill="#2F2E41"/>
<path d="M198.414 430.047L187.52 430.046L182.337 388.014L198.416 388.015L198.414 430.047Z" fill="#FFB6B6"/>
<path d="M201.192 440.609L166.065 440.608V440.164C166.065 436.537 167.505 433.058 170.07 430.494C172.634 427.929 176.111 426.488 179.737 426.488H179.738L186.155 421.619L198.127 426.489L201.193 426.489L201.192 440.609Z" fill="#2F2E41"/>
<path d="M237.45 107.926L226.419 116.328L197.116 124.09C197.116 124.09 207.616 197.798 202.66 202.755C197.704 207.712 202.174 207.845 201.178 214.284C200.182 220.723 196.214 237.724 196.214 237.724H283.673C283.673 237.724 284.377 227.158 280.066 224.87C275.755 222.582 284.04 211.902 280.517 210.117C276.994 208.331 281.949 192.841 281.949 192.841L292.689 142.127L264.124 119.773L259.779 109.303L237.45 107.926Z" fill="#F2AB6D"/>
<path d="M251.214 173.791C253.322 173.791 255.031 172.082 255.031 169.973C255.031 167.865 253.322 166.156 251.214 166.156C249.106 166.156 247.397 167.865 247.397 169.973C247.397 172.082 249.106 173.791 251.214 173.791Z" fill="#F2F2F2"/>
<path d="M196.214 237.724L192.608 330.614C192.608 330.614 177.036 399.222 179.741 401.026C182.445 402.83 183.591 413.585 183.591 413.585L198.919 415.389C198.919 415.389 198.919 408.174 202.526 405.468C206.132 402.763 239.493 275.602 239.493 275.602L272.038 398.548C272.038 398.548 272.853 405.468 275.558 405.468C278.263 405.468 279.164 415.389 279.164 415.389H294.492V405.468C294.492 405.468 301.379 403.284 298.674 396.069C295.97 388.855 283.673 237.724 283.673 237.724H196.214Z" fill="#2F2E41"/>
<path d="M248.905 102.391C259.113 102.391 267.388 94.1136 267.388 83.903C267.388 73.6923 259.113 65.415 248.905 65.415C238.696 65.415 230.421 73.6923 230.421 83.903C230.421 94.1136 238.696 102.391 248.905 102.391Z" fill="#FFB6B6"/>
<path opacity="0.1" d="M280.517 166.928L284.123 169.634L285.926 157.008L280.517 166.928Z" fill="black"/>
<path d="M198.844 124.019C198.844 124.019 194.336 123.117 191.631 131.234C188.926 139.35 179.008 170.013 179.008 175.424C179.008 180.835 240.774 204.711 240.774 204.711L234.347 182.16L206.057 167.308L198.844 124.019Z" fill="#F2AB6D"/>
<path d="M243.639 201.367C249.455 201.367 254.169 196.651 254.169 190.834C254.169 185.017 249.455 180.301 243.639 180.301C237.823 180.301 233.108 185.017 233.108 190.834C233.108 196.651 237.823 201.367 243.639 201.367Z" fill="#FFB6B6"/>
<path opacity="0.1" d="M205.233 156.137L206.057 167.307L232.217 181.041L208.95 165.431L205.233 156.137Z" fill="black"/>
<path d="M268.121 157.729H267.782V148.43C267.782 147.723 267.643 147.024 267.372 146.371C267.102 145.718 266.705 145.124 266.206 144.624C265.706 144.125 265.113 143.728 264.46 143.458C263.807 143.187 263.108 143.048 262.401 143.048H242.704C241.998 143.048 241.298 143.187 240.645 143.458C239.992 143.728 239.399 144.125 238.9 144.624C238.4 145.124 238.004 145.718 237.733 146.371C237.463 147.024 237.324 147.723 237.324 148.43V199.446C237.324 200.153 237.463 200.852 237.733 201.505C238.004 202.158 238.4 202.752 238.9 203.251C239.399 203.751 239.992 204.148 240.645 204.418C241.298 204.689 241.998 204.828 242.704 204.828H262.401C263.108 204.828 263.807 204.689 264.46 204.418C265.113 204.148 265.706 203.751 266.206 203.251C266.705 202.752 267.102 202.158 267.372 201.505C267.643 200.852 267.782 200.153 267.782 199.446V164.349H268.121V157.729Z" fill="#F0F0F0"/>
<path d="M292.689 142.127C292.689 142.127 295.394 143.931 297.197 152.048C299 160.165 310.721 190.827 306.213 198.042C301.705 205.257 300.374 212.958 285.047 202.135L263.837 182.711L279.164 168.281L285.476 172.79L292.689 142.127Z" fill="#F2AB6D"/>
<path d="M252.793 165.786C255.283 165.786 257.301 163.767 257.301 161.277C257.301 158.786 255.283 156.767 252.793 156.767C250.304 156.767 248.285 158.786 248.285 161.277C248.285 163.767 250.304 165.786 252.793 165.786Z" fill="#F2AB6D"/>
<path d="M265.844 181.689C271.66 181.689 276.374 176.973 276.374 171.155C276.374 165.338 271.66 160.622 265.844 160.622C260.028 160.622 255.313 165.338 255.313 171.155C255.313 176.973 260.028 181.689 265.844 181.689Z" fill="#FFB6B6"/>
<path opacity="0.1" d="M204.736 189.851L234.966 203.226L203.896 197.152L204.736 189.851Z" fill="black"/>
<path d="M230.257 87.5874L227.719 77.9267C227.057 75.406 226.389 72.8343 226.538 70.2323C226.687 67.6303 227.79 64.9453 229.982 63.5357C232.173 62.126 235.519 62.459 236.929 64.6505C237.197 61.1512 240.38 58.4596 243.757 57.506C247.133 56.5524 250.718 56.9295 254.223 57.0904C257.728 57.2513 261.428 57.139 264.453 55.3609C264.684 56.0528 264.669 56.803 264.41 57.4849C264.152 58.1669 263.666 58.7388 263.035 59.1041C263.787 59.3093 264.589 59.2212 265.279 58.8574C265.968 58.4937 266.494 57.8816 266.749 57.1449C266.772 59.1715 266.023 61.131 264.655 62.6255C265.96 61.9777 267.46 61.8388 268.862 62.236C270.264 62.6331 271.468 63.5378 272.24 64.774C273.784 67.4511 272.919 70.8132 272.016 73.7688L267.38 88.938C266.677 86.632 266.544 84.1975 266.168 81.8162C265.792 79.4349 265.123 77.0031 263.552 75.1753C261.98 73.3474 259.311 72.2888 257.078 73.1964C255.825 73.7056 254.87 74.7386 253.739 75.4801C251.418 77.0013 248.466 77.2195 245.709 76.9099C242.951 76.6004 240.264 75.815 237.507 75.5013C235.781 75.3049 233.855 75.3569 232.552 76.5069C231.657 77.4379 231.065 78.6193 230.856 79.8944C230.241 82.4359 230 85.0534 230.139 87.6646" fill="#2F2E41"/>
</g>
<defs>
<clipPath id="clip0_8_142">
<rect width="574" height="487" fill="white"/>
</clipPath>
</defs>
</svg>
